<?xml version="1.0" encoding="UTF-8"?>
<svg id="Layer_2" data-name="Layer 2" xmlns="http://www.w3.org/2000/svg" viewBox="0 0 106.08 128">
  <g id="Layer_1-2" data-name="Layer 1">
    <g>
      <path d="M81.26,128H7.27C1.46,125.75,.02,123.63,.02,117.33c0-26.28,0-52.56,0-78.83,0-4.62-.07-9.25,.03-13.87,.08-3.77,1.96-6.5,5.45-7.93,1.16-.47,2.51-.6,3.77-.64,2.69-.09,5.38-.03,8.19-.03,0-1.27-.06-2.39,.02-3.5,.08-1.24,.14-2.51,.47-3.69C19.38,3.81,24.19,.2,29.61,.06c2.96-.07,5.91-.03,8.87-.03,18.08,0,36.15,.07,54.23-.04,7.24-.05,13.54,5.25,13.36,13.28-.26,11.32-.06,22.65-.06,33.98,0,17.41-.01,34.81,0,52.22,0,3.47-1.13,6.45-3.61,8.87-2.43,2.37-5.4,3.54-8.78,3.64-1.65,.05-3.3,0-5.07,0,0,2.66,.05,5.15-.01,7.64-.09,3.65-2.43,6.73-5.87,7.89-.47,.16-.94,.31-1.4,.47Zm-.69-55.98c0-15.37,0-30.74,0-46.11q0-1.88-1.83-1.88c-22.95,0-45.91,0-68.86,0q-1.85,0-1.85,1.87c0,30.74,0,61.48,0,92.22q0,1.88,1.84,1.88c22.95,0,45.91,0,68.86,0q1.84,0,1.84-1.87c0-15.37,0-30.74,0-46.11ZM25.49,16.03c.65,0,1.15,0,1.64,0,17.45,0,34.91,0,52.36,0,2.94,0,5.36,1.03,7.21,3.32,1.46,1.8,1.88,3.91,1.87,6.19-.02,25.61-.01,51.23-.01,76.84v1.63c1.45,0,2.69,0,3.94,0,.42,0,.83,.01,1.25-.02,2.58-.21,4.25-1.95,4.25-4.47,0-29.03,0-58.06,.01-87.09,0-1.89-.85-3.23-2.55-3.9-.9-.35-1.94-.48-2.92-.48-20.54-.03-41.07-.02-61.61-.02-.46,0-.92-.02-1.37,.03-2.17,.22-3.94,1.73-4.06,3.58-.09,1.4-.02,2.82-.02,4.38Z" style="fill: #9e9e27;"/>
      <path d="M45.02,46.02c6.16,0,12.33,0,18.49,0,2.66,0,4.48,1.61,4.5,3.96,.02,2.36-1.8,4.03-4.44,4.03-12.37,0-24.74,0-37.11,0-2.63,0-4.45-1.67-4.44-4.03,.02-2.36,1.82-3.96,4.5-3.96,6.16,0,12.33,0,18.49,0Z" style="fill: #9e9e27;"/>
      <path d="M45.15,62.02c6.12,0,12.25,0,18.37,0,2.66,0,4.48,1.62,4.5,3.97,.02,2.36-1.8,4.02-4.44,4.03-12.37,0-24.74,0-37.11,0-2.63,0-4.45-1.67-4.43-4.03,.02-2.36,1.82-3.96,4.5-3.96,6.21,0,12.41,0,18.62,0Z" style="fill: #9e9e27;"/>
      <path d="M44.97,78.01c6.29,0,12.58,0,18.87,0,2,0,3.48,1.12,4.02,2.93,.48,1.63-.13,3.46-1.65,4.34-.72,.42-1.64,.68-2.47,.69-12.5,.04-24.99,.04-37.49,.02-2.44,0-4.22-1.72-4.23-3.98,0-2.28,1.76-4,4.2-4,6.25-.02,12.5,0,18.74,0Z" style="fill: #9e9e27;"/>
    </g>
  </g>
</svg>