<?xml version="1.0" encoding="UTF-8"?>
<svg id="Layer_2" data-name="Layer 2" xmlns="http://www.w3.org/2000/svg" viewBox="0 0 127.97 128">
  <g id="Layer_1-2" data-name="Layer 1">
    <path d="M57.23,0c2.3,.33,4.62,.57,6.9,1,11.08,2.1,20.57,7.25,28.46,15.27,7.18,7.3,11.93,15.96,13.97,26.02,2.56,12.64,.79,24.69-5.54,35.94-2.03,3.6-4.59,6.91-6.91,10.35l-.66,.25c.41,.21,.91,.34,1.22,.65,10.49,10.29,20.97,20.6,31.42,30.93,.75,.74,1.26,1.72,1.88,2.58v1.75c-1.31,2.78-3.29,3.87-5.58,2.95-.74-.3-1.43-.85-2.01-1.43-10.56-10.36-21.09-20.74-31.63-31.11-.32-.32-.66-.62-.99-.94-1.7,1.16-3.31,2.34-4.99,3.4-9.43,5.94-19.76,8.72-30.86,8.31-14.64-.55-27.12-6.18-37.3-16.73-7.65-7.93-12.4-17.39-13.99-28.3-2.06-14.15,1.02-27.16,9.51-38.72C18.3,11.03,29.23,4.05,42.74,1.16c2.11-.45,4.28-.63,6.42-.94C49.52,.17,49.88,.08,50.23,0c2.33,0,4.67,0,7,0ZM8.26,52.72c.1,1.85,.09,3.4,.27,4.93,1.15,9.67,4.83,18.24,11.55,25.33,11.75,12.41,26.27,17.08,42.91,13.84,14.59-2.84,25.49-11.23,31.95-24.73,6.51-13.61,6.12-27.36-1.17-40.51-7.47-13.48-19.27-21.16-34.56-23.04-12.08-1.49-23.18,1.45-32.92,8.83C14.52,26.29,8.66,38.31,8.26,52.72Z" style="fill: #9e9e27;"/>
  </g>
</svg>