<?xml version="1.0" encoding="UTF-8"?>
<svg id="Layer_2" data-name="Layer 2" xmlns="http://www.w3.org/2000/svg" viewBox="0 0 76.86 128">
  <g id="Layer_1-2" data-name="Layer 1">
    <g>
      <path d="M11.18,128c-1.97-.84-4.14-1.39-5.86-2.58C1.55,122.83,0,118.99,0,114.44c.03-10.58,0-21.16,0-31.74C.01,59.71,.03,36.72,0,13.73,0,9.19,1.53,5.43,5.16,2.63,7.56,.79,10.29,0,13.31,0c13.12,.02,26.24,.01,39.37,.01,3.62,0,7.25,0,10.87,0,7.56,.02,13.08,5.4,13.29,12.96,.03,1.12,0,2.25,0,3.37,0,32.65-.01,65.31,.01,97.96,0,4.59-1.51,8.48-5.32,11.11-1.73,1.19-3.89,1.74-5.86,2.58H11.18Zm-4.75-63.99c0,16.79,0,33.58,0,50.36,0,4.65,2.53,7.21,7.16,7.21,16.54,0,33.08,0,49.62,0,4.71,0,7.22-2.54,7.22-7.28,0-33.53,0-67.07,0-100.6,0-4.73-2.51-7.27-7.22-7.28-16.54,0-33.08,0-49.62,0-.79,0-1.6,.03-2.35,.22-3.06,.79-4.8,3.26-4.81,6.74,0,16.87,0,33.74,0,50.61Z" style="fill: #9e9e27;"/>
      <path d="M38.41,117.3c-3.51,0-6.36-2.84-6.37-6.35-.01-3.48,2.86-6.38,6.34-6.41,3.51-.04,6.47,2.93,6.43,6.45-.04,3.52-2.88,6.32-6.4,6.31Z" style="fill: #9e9e27;"/>
      <path d="M43.68,17.05c-2.04,0-4.08,.03-6.11,0-1.99-.03-3.41-1.41-3.38-3.23,.03-1.76,1.42-3.1,3.37-3.11,4.16-.03,8.32-.03,12.48,0,1.91,.02,3.33,1.42,3.34,3.16,0,1.74-1.43,3.14-3.32,3.18-2.12,.04-4.24,0-6.36,0Z" style="fill: #9e9e27;"/>
      <path d="M26.73,17.04c-1.7,.01-3.21-1.45-3.24-3.13-.02-1.68,1.47-3.18,3.17-3.19,1.71-.01,3.21,1.45,3.23,3.13,.02,1.68-1.47,3.18-3.17,3.2Z" style="fill: #9e9e27;"/>
    </g>
  </g>
</svg>