<svg xmlns="http://www.w3.org/2000/svg" width="93" height="93.26" viewBox="0 0 93 93.26">
  <g id="bid" transform="translate(-3.5 -2.93)">
    <path id="Path_1300" data-name="Path 1300" d="M94.57,69.57,58.39,33.39,70.79,21,52.71,2.93,26.7,28.94l-7.94,7.94L36.83,54.95,49.05,42.73,85.23,78.9a6.6,6.6,0,0,0,9.34-9.33ZM66.54,21l-5.82,5.82L53.8,19.9l-6.92-6.92L52.7,7.16ZM36.84,50.7,23.01,36.87l5.82-5.82L42.66,44.88Zm7.94-7.93L30.95,28.94,44.78,15.11,58.61,28.94l-2.34,2.34ZM92.45,76.78a3.685,3.685,0,0,1-5.09,0L51.18,40.61l5.09-5.09L92.44,71.69h0a3.622,3.622,0,0,1,.01,5.09Z" fill="#e1ff04"/>
    <path id="Path_1301" data-name="Path 1301" d="M25.58,72.6a1.5,1.5,0,0,0,3,0,6.156,6.156,0,0,0-4.66-5.96V64.87a1.5,1.5,0,0,0-3,0v1.77a6.141,6.141,0,0,0,0,11.92v6.11a3.151,3.151,0,0,1-1.66-2.76,1.5,1.5,0,0,0-3,0,6.156,6.156,0,0,0,4.66,5.96v1.77a1.5,1.5,0,0,0,3,0V87.87a6.141,6.141,0,0,0,0-11.92V69.84A3.143,3.143,0,0,1,25.58,72.6Zm-6.31,0a3.143,3.143,0,0,1,1.66-2.76v5.52A3.139,3.139,0,0,1,19.27,72.6Zm6.31,9.31a3.143,3.143,0,0,1-1.66,2.76V79.15A3.143,3.143,0,0,1,25.58,81.91Z" fill="#e1ff04"/>
    <path id="Path_1302" data-name="Path 1302" d="M22.43,58.33A18.93,18.93,0,1,0,41.36,77.26,18.949,18.949,0,0,0,22.43,58.33Zm0,34.86A15.93,15.93,0,1,1,38.36,77.26,15.953,15.953,0,0,1,22.43,93.19Z" fill="#e1ff04"/>
  </g>
</svg>
