<svg width="20" height="20" viewBox="0 0 20 20" fill="none" xmlns="http://www.w3.org/2000/svg">
<path d="M19.5 2.00002H3.72L3.16 1.00002C2.98379 0.694807 2.73006 0.441579 2.42451 0.265972C2.11895 0.0903656 1.77242 -0.00138337 1.42 1.57658e-05H0.5C0.367392 1.57658e-05 0.240215 0.0526943 0.146447 0.146462C0.0526785 0.240231 0 0.367408 0 0.500016V1.50002C0 1.63262 0.0526785 1.7598 0.146447 1.85357C0.240215 1.94734 0.367392 2.00002 0.5 2.00002H1.42L5.7 9.49002C5.77797 9.61549 5.86843 9.73275 5.97 9.84002L4.11 13.54C4.05303 13.6497 4.02328 13.7714 4.02328 13.895C4.02328 14.0186 4.05303 14.1404 4.11 14.25L4.33 14.63C4.39896 14.7454 4.49732 14.8405 4.61502 14.9055C4.73273 14.9705 4.86557 15.0031 5 15H17.5C17.6326 15 17.7598 14.9473 17.8536 14.8536C17.9473 14.7598 18 14.6326 18 14.5V13.5C18 13.3674 17.9473 13.2402 17.8536 13.1465C17.7598 13.0527 17.6326 13 17.5 13H6.62L7.62 10.91C7.82904 10.9652 8.04386 10.9954 8.26 11H14.49C15.0039 10.9897 15.506 10.8448 15.9464 10.5799C16.3869 10.3149 16.7501 9.93915 17 9.49002L19.35 5.36002C19.7687 4.64346 19.9928 3.8299 20 3.00002V2.50002C20 2.36741 19.9473 2.24023 19.8536 2.14646C19.7598 2.05269 19.6326 2.00002 19.5 2.00002ZM15.28 8.50002C15.2029 8.63625 15.0948 8.75247 14.9645 8.83931C14.8343 8.92616 14.6854 8.9812 14.53 9.00002H8.3C8.12549 8.99896 7.95429 8.95226 7.80342 8.86454C7.65254 8.77683 7.52726 8.65115 7.44 8.50002L4.87 4.00002H17.79C17.74 4.12002 17.7 4.25002 17.64 4.37002L15.28 8.50002ZM16 16C15.6044 16 15.2178 16.1173 14.8889 16.3371C14.56 16.5568 14.3036 16.8692 14.1522 17.2346C14.0009 17.6001 13.9613 18.0022 14.0384 18.3902C14.1156 18.7782 14.3061 19.1345 14.5858 19.4142C14.8655 19.6939 15.2219 19.8844 15.6098 19.9616C15.9978 20.0388 16.3999 19.9991 16.7654 19.8478C17.1308 19.6964 17.4432 19.4401 17.6629 19.1112C17.8827 18.7823 18 18.3956 18 18C18 17.4696 17.7893 16.9609 17.4142 16.5858C17.0391 16.2107 16.5304 16 16 16ZM6 16C5.60444 16 5.21776 16.1173 4.88886 16.3371C4.55996 16.5568 4.30362 16.8692 4.15224 17.2346C4.00087 17.6001 3.96126 18.0022 4.03843 18.3902C4.1156 18.7782 4.30608 19.1345 4.58579 19.4142C4.86549 19.6939 5.22186 19.8844 5.60982 19.9616C5.99778 20.0388 6.39991 19.9991 6.76537 19.8478C7.13082 19.6964 7.44318 19.4401 7.66294 19.1112C7.8827 18.7823 8 18.3956 8 18C8 17.4696 7.78929 16.9609 7.41421 16.5858C7.03914 16.2107 6.53043 16 6 16Z" fill="white"/>
</svg>
