<svg height='300px' width='300px'  fill="#000000" xmlns="http://www.w3.org/2000/svg" data-name="Layer 1" viewBox="0 0 64 64" x="0px" y="0px"><path d="M58,36.35V27a5,5,0,0,0-5-5V19a4.91,4.91,0,0,0-1.81-3.81,5,5,0,0,0-4.18-1l-3,.6c0-.24,0-.47,0-.7a12,12,0,1,0-22.82,5.18L6.81,22h0A5,5,0,0,0,2,27V57a5,5,0,0,0,5,5H53a5,5,0,0,0,5-5V47.65a6,6,0,0,0,0-11.3ZM47.4,16.06a3,3,0,0,1,2.52.62A2.91,2.91,0,0,1,51,19V22H40.92a12.15,12.15,0,0,0,2.74-5.2ZM32,4A10,10,0,0,1,42,14a10.46,10.46,0,0,1-.15,1.76A10.06,10.06,0,0,1,38,22H33V20h2a1,1,0,0,0,1-1V14a1,1,0,0,0-1-1H30V10h6V8H33V6H31V8H29a1,1,0,0,0-1,1v5a1,1,0,0,0,1,1h5v3H28v2h3v2H26a9.82,9.82,0,0,1-2.46-2.64A10,10,0,0,1,32,4ZM23.07,22H17.24l5-1A12.23,12.23,0,0,0,23.07,22ZM56,57a3,3,0,0,1-3,3H7a3,3,0,0,1-3-3V27a3,3,0,0,1,3-3H53a3,3,0,0,1,3,3v9H44a6,6,0,0,0,0,12H56Zm0-11H44a4,4,0,0,1,0-8H56a4,4,0,0,1,0,8Z"></path><path d="M44,39a3,3,0,1,0,3,3A3,3,0,0,0,44,39Zm0,4a1,1,0,1,1,1-1A1,1,0,0,1,44,43Z"></path></svg>