<svg xmlns="http://www.w3.org/2000/svg" width="90" height="90" viewBox="0 0 90 90">
  <g id="done" transform="translate(3972 458)">
    <circle id="Ellipse_2" data-name="Ellipse 2" cx="42.5" cy="42.5" r="42.5" transform="translate(-3969.5 -455.5)" fill="none" stroke="#41bb23" stroke-width="5"/>
    <path id="Vector_2_" data-name="Vector (2)" d="M33.046,3.9,12.729,24.212a.959.959,0,0,1-1.361,0L1.037,13.882a.958.958,0,0,1,0-1.361l1.342-1.342a.959.959,0,0,1,1.361,0l8.3,8.3,18.3-18.3a.977.977,0,0,1,1.361,0l1.342,1.361a.958.958,0,0,1,0,1.361Z" transform="translate(-3943.754 -425.898)" fill="#41bb23"/>
  </g>
</svg>
