<svg width="298" height="247" viewBox="0 0 298 247" fill="none" xmlns="http://www.w3.org/2000/svg">
<path d="M295.393 90.3261C297.061 88.616 297.999 86.2974 298 83.8796C298 82.5806 297.73 81.2966 297.206 80.1138C296.682 78.931 295.917 77.8767 294.963 77.0218C294.008 76.1668 292.887 75.531 291.673 75.157C290.459 74.7831 289.181 74.6796 287.925 74.8535C287.338 72.3097 286.005 70.0109 284.106 68.2665C282.206 66.5221 279.831 65.4156 277.299 65.096C274.767 64.7764 272.201 65.259 269.945 66.4788C267.689 67.6987 265.852 69.5972 264.68 71.9192C263.908 71.6598 263.1 71.5276 262.288 71.5275C260.281 71.5303 258.35 72.3141 256.886 73.7205C255.422 75.1268 254.534 77.0506 254.402 79.1024C252.748 79.471 251.286 80.453 250.296 81.8596C249.306 83.2662 248.858 84.9981 249.039 86.7224C249.22 88.4467 250.017 90.0416 251.276 91.2004C252.535 92.3592 254.168 93.0001 255.86 93H289.104C291.463 92.9978 293.725 92.0361 295.393 90.3261Z" fill="#253129"/>
<path d="M130.421 246.571C202.45 246.571 260.841 222.078 260.841 191.865C260.841 161.652 202.45 137.16 130.421 137.16C58.3913 137.16 0 161.652 0 191.865C0 222.078 58.3913 246.571 130.421 246.571Z" fill="url(#paint0_linear_799_298)"/>
<path d="M202 67C216.912 67 229 54.9117 229 40C229 25.0883 216.912 13 202 13C187.088 13 175 25.0883 175 40C175 54.9117 187.088 67 202 67Z" fill="url(#paint1_linear_799_298)"/>
<path d="M259.605 83.3392C264.794 72.7795 239.743 49.8432 203.653 32.1096C167.563 14.376 134.099 8.56041 128.911 19.1201C123.722 29.6798 148.773 52.616 184.863 70.3496C220.953 88.0832 254.416 93.8989 259.605 83.3392Z" fill="black"/>
<path d="M199.819 39.5661C231.266 55.1231 254.301 74.6701 256.137 86.4187C257.523 85.711 258.654 84.5835 259.37 83.1949C264.541 72.6003 239.577 49.5881 203.612 31.7957C167.647 14.0033 134.299 8.16834 129.129 18.763C128.475 20.1825 128.279 21.7726 128.569 23.3098C138.929 17.5941 168.373 24.0091 199.819 39.5661Z" fill="#01130B"/>
<path d="M216.568 71.6567C218.637 67.4462 208.648 58.3008 194.258 51.2299C179.868 44.159 166.525 41.8402 164.456 46.0507C162.387 50.2613 172.376 59.4067 186.766 66.4776C201.156 73.5485 214.499 75.8673 216.568 71.6567Z" fill="#4A4948"/>
<path d="M192.499 54.0976C205.001 60.3542 214.16 68.2155 214.89 72.9405C215.441 72.6558 215.891 72.2024 216.175 71.6439C218.231 67.383 208.306 58.1281 194.006 50.9725C179.707 43.8168 166.448 41.4702 164.393 45.7311C164.133 46.302 164.055 46.9415 164.17 47.5597C168.289 45.261 179.996 47.8409 192.499 54.0976Z" fill="#333333"/>
<path d="M185.719 160.152H71.354L164.124 47.5697L215.649 72.9674L185.719 160.152Z" fill="url(#paint2_linear_799_298)"/>
<path d="M87.2306 47.7827C87.2291 51.2127 85.8663 54.5019 83.4414 56.9278C81.0166 59.3537 77.728 60.718 74.298 60.721H25.9723C23.5122 60.7212 21.1388 59.812 19.3085 58.1681C17.4782 56.5242 16.3202 54.2617 16.0572 51.8156C15.7942 49.3695 16.4447 46.9126 17.8837 44.9171C19.3227 42.9217 21.4485 41.5287 23.8525 41.0059C24.0448 38.095 25.3358 35.366 27.4641 33.3709C29.5924 31.3759 32.3991 30.2639 35.3163 30.26C36.4976 30.2601 37.6714 30.4476 38.7938 30.8156C40.4968 27.5217 43.1677 24.8284 46.4472 23.0979C49.7268 21.3674 53.4576 20.6828 57.1378 21.1362C60.8181 21.5896 64.2712 23.1592 67.0327 25.6339C69.7942 28.1086 71.7315 31.3696 72.5842 34.9783C74.4103 34.7316 76.268 34.8784 78.0327 35.4089C79.7974 35.9394 81.4281 36.8413 82.8154 38.0542C84.2027 39.267 85.3144 40.7626 86.076 42.4405C86.8375 44.1185 87.2312 45.94 87.2306 47.7827Z" fill="#253129"/>
<defs>
<linearGradient id="paint0_linear_799_298" x1="130.421" y1="137.16" x2="130" y2="203" gradientUnits="userSpaceOnUse">
<stop stop-color="#1D2720"/>
<stop offset="1" stop-color="#1D2720" stop-opacity="0"/>
</linearGradient>
<linearGradient id="paint1_linear_799_298" x1="202" y1="13" x2="202" y2="67" gradientUnits="userSpaceOnUse">
<stop stop-color="#E2FF00"/>
<stop offset="0.432292" stop-color="#18E0E0"/>
<stop offset="1" stop-color="#E8318D"/>
</linearGradient>
<linearGradient id="paint2_linear_799_298" x1="188.693" y1="58.6693" x2="188.795" y2="154.206" gradientUnits="userSpaceOnUse">
<stop stop-color="#353535"/>
<stop offset="1" stop-color="white" stop-opacity="0"/>
</linearGradient>
</defs>
</svg>
