<?xml version="1.0" standalone="no"?>
<!DOCTYPE svg PUBLIC "-//W3C//DTD SVG 20010904//EN"
 "http://www.w3.org/TR/2001/REC-SVG-20010904/DTD/svg10.dtd">
<svg version="1.0" xmlns="http://www.w3.org/2000/svg"
 width="512.000000pt" height="512.000000pt" viewBox="0 0 512.000000 512.000000"
 preserveAspectRatio="xMidYMid meet">

<g transform="translate(0.000000,512.000000) scale(0.100000,-0.100000)"
fill="#000000" stroke="none">
<path d="M1220 4911 c-94 -29 -177 -101 -219 -190 l-26 -56 0 -815 0 -815 26
-56 c37 -79 90 -133 167 -171 l67 -33 512 -3 513 -3 0 -199 0 -198 -38 -13
c-50 -16 -116 -62 -146 -102 -53 -69 -67 -120 -73 -258 -6 -124 -7 -129 -28
-129 -37 0 -123 -50 -155 -90 -77 -98 -79 -228 -5 -326 l27 -35 -20 -22 c-80
-85 -80 -249 0 -334 l21 -22 -27 -36 c-73 -96 -74 -225 -1 -320 l26 -35 -24
-30 c-40 -47 -60 -111 -55 -177 5 -70 27 -119 75 -166 75 -76 35 -72 733 -72
708 0 678 -3 884 85 134 57 211 69 454 70 188 0 203 1 222 20 20 20 20 33 20
629 0 584 -1 610 -19 632 -19 23 -25 24 -208 30 -172 5 -195 8 -272 34 -179
61 -312 181 -402 363 -88 176 -202 273 -353 301 -33 6 -160 11 -283 11 l-223
0 0 194 0 195 513 3 512 3 57 27 c75 35 138 95 174 165 l29 58 0 820 0 820
-26 56 c-33 69 -91 129 -161 166 l-53 28 -1095 2 c-602 1 -1106 -2 -1120 -6z
m2209 -151 c48 -24 87 -70 101 -118 8 -25 10 -282 8 -818 l-3 -781 -29 -41
c-18 -26 -47 -51 -79 -67 l-51 -25 -1040 0 c-696 0 -1054 4 -1079 11 -49 13
-105 63 -128 114 -17 38 -19 87 -19 815 0 732 1 777 19 815 20 44 50 74 96 98
27 15 144 16 1098 17 1041 0 1069 0 1106 -20z m-487 -2547 c72 -33 130 -98
181 -204 82 -167 183 -278 334 -368 128 -75 272 -111 451 -111 l102 0 0 -513
0 -514 -192 -6 c-212 -6 -291 -21 -413 -76 -141 -64 -186 -74 -372 -79 l-173
-4 15 36 c31 74 9 193 -47 253 l-20 22 26 33 c74 98 75 227 2 323 l-27 35 30
37 c16 21 33 50 36 66 4 15 9 27 12 27 3 0 26 -15 52 -34 109 -80 350 -186
421 -186 38 0 74 44 65 80 -9 36 -22 45 -100 70 -308 99 -558 316 -696 604
-23 47 -44 106 -47 131 -8 77 -70 108 -117 60 -25 -24 -25 -27 -25 -195 0
-187 -5 -207 -59 -253 -70 -59 -175 -34 -218 53 -22 42 -23 54 -23 305 0 150
5 276 11 298 12 45 63 105 104 123 23 11 97 13 335 11 289 -2 307 -3 352 -24z
m-942 -550 c0 -38 3 -92 7 -122 6 -53 6 -53 -18 -46 -13 3 -39 22 -56 41 -28
28 -33 41 -33 80 0 39 5 51 34 80 53 53 66 47 66 -33z m585 -163 c3 -5 1 -10
-4 -10 -6 0 -11 5 -11 10 0 6 2 10 4 10 3 0 8 -4 11 -10z m-470 -160 c11 -17
83 -50 130 -59 63 -12 141 4 198 39 44 27 56 30 133 30 128 0 174 -35 174
-131 0 -33 -6 -47 -34 -75 l-34 -34 -354 0 c-387 0 -382 -1 -413 60 -30 59
-10 136 43 164 31 17 148 21 157 6z m559 -384 c49 -20 76 -61 76 -112 0 -36
-6 -51 -34 -82 l-34 -37 -357 0 -357 0 -34 37 c-28 31 -34 46 -34 82 0 51 27
91 74 112 45 20 653 20 700 0z m16 -391 c55 -28 76 -105 45 -165 -31 -61 -26
-60 -408 -60 -306 0 -351 2 -373 16 -72 48 -70 168 4 208 41 23 689 23 732 1z"/>
<path d="M1487 4052 c-15 -16 -17 -46 -17 -205 0 -245 -18 -227 219 -227 165
0 180 2 205 21 l26 20 0 183 c0 148 -3 186 -16 204 -15 21 -20 22 -208 22
-174 0 -195 -2 -209 -18z m293 -202 l0 -90 -85 0 -85 0 0 90 0 90 85 0 85 0 0
-90z"/>
<path d="M2117 4052 c-15 -16 -17 -45 -17 -204 0 -244 -16 -228 226 -228 241
0 224 -18 224 229 0 169 -2 190 -18 204 -16 15 -46 17 -209 17 -171 0 -192 -2
-206 -18z m293 -202 l0 -90 -85 0 -85 0 0 90 0 90 85 0 85 0 0 -90z"/>
<path d="M2746 4048 c-13 -18 -16 -56 -16 -204 l0 -183 26 -20 c25 -19 40 -21
205 -21 237 0 219 -19 219 228 0 170 -2 191 -18 205 -16 15 -46 17 -210 17
-186 0 -191 -1 -206 -22z m294 -198 l0 -90 -85 0 -85 0 0 90 0 90 85 0 85 0 0
-90z"/>
</g>
</svg>
