<svg id="Group_3" data-name="Group 3" xmlns="http://www.w3.org/2000/svg" xmlns:xlink="http://www.w3.org/1999/xlink" width="40" height="40" viewBox="0 0 40 40">
  <defs>
    <clipPath id="clip-path">
      <path id="Shape" d="M19.533,6.454a.759.759,0,0,1,0,1.088l-6.2,6.224a.769.769,0,0,1-1.1,0,.789.789,0,0,1,0-1.1l4.883-4.9H.769a.775.775,0,0,1,0-1.55H17.124L12.239,1.318a.773.773,0,1,1,1.1-1.086Z" transform="translate(10.118 13)" fill="#fff"/>
    </clipPath>
  </defs>
  <circle id="Oval" cx="20" cy="20" r="20"/>
  <path id="Shape-2" data-name="Shape" d="M19.533,6.454a.759.759,0,0,1,0,1.088l-6.2,6.224a.769.769,0,0,1-1.1,0,.789.789,0,0,1,0-1.1l4.883-4.9H.769a.775.775,0,0,1,0-1.55H17.124L12.239,1.318a.773.773,0,1,1,1.1-1.086Z" transform="translate(10.118 13)" fill="#fff"/>
</svg>
