<svg xmlns="http://www.w3.org/2000/svg" width="317.5" height="471.223" viewBox="0 0 317.5 471.223">
  <g id="outbid" transform="translate(-97.5 491.719)">
    <path id="Path_1298" data-name="Path 1298" d="M122-491.1a36.78,36.78,0,0,0-21.9,19l-2.6,5.6v163l2.6,5.6a34.329,34.329,0,0,0,16.7,17.1l6.7,3.3,51.2.3,51.3.3v39.7l-3.8,1.3c-5,1.6-11.6,6.2-14.6,10.2-5.3,6.9-6.7,12-7.3,25.8-.6,12.4-.7,12.9-2.8,12.9-3.7,0-12.3,5-15.5,9a26.3,26.3,0,0,0-.5,32.6l2.7,3.5-2,2.2c-8,8.5-8,24.9,0,33.4l2.1,2.2-2.7,3.6a26.117,26.117,0,0,0-.1,32l2.6,3.5-2.4,3a24.46,24.46,0,0,0-5.5,17.7c.5,7,2.7,11.9,7.5,16.6,7.5,7.6,3.5,7.2,73.3,7.2,70.8,0,67.8.3,88.4-8.5,13.4-5.7,21.1-6.9,45.4-7,18.8,0,20.3-.1,22.2-2,2-2,2-3.3,2-62.9,0-58.4-.1-61-1.9-63.2-1.9-2.3-2.5-2.4-20.8-3-17.2-.5-19.5-.8-27.2-3.4-17.9-6.1-31.2-18.1-40.2-36.3-8.8-17.6-20.2-27.3-35.3-30.1-3.3-.6-16-1.1-28.3-1.1H239v-38.9l51.3-.3,51.2-.3,5.7-2.7a37.669,37.669,0,0,0,17.4-16.5l2.9-5.8v-164l-2.6-5.6a37.412,37.412,0,0,0-16.1-16.6l-5.3-2.8L234-491.7C173.8-491.8,123.4-491.5,122-491.1ZM342.9-476A20.178,20.178,0,0,1,353-464.2c.8,2.5,1,28.2.8,81.8l-.3,78.1-2.9,4.1a21.734,21.734,0,0,1-7.9,6.7l-5.1,2.5h-104c-69.6,0-105.4-.4-107.9-1.1-4.9-1.3-10.5-6.3-12.8-11.4-1.7-3.8-1.9-8.7-1.9-81.5,0-73.2.1-77.7,1.9-81.5a19.864,19.864,0,0,1,9.6-9.8c2.7-1.5,14.4-1.6,109.8-1.7C336.4-478,339.2-478,342.9-476ZM294.2-221.3c7.2,3.3,13,9.8,18.1,20.4,8.2,16.7,18.3,27.8,33.4,36.8,12.8,7.5,27.2,11.1,45.1,11.1H401V-50.3l-19.2.6c-21.2.6-29.1,2.1-41.3,7.6-14.1,6.4-18.6,7.4-37.2,7.9l-17.3.4,1.5-3.6c3.1-7.4.9-19.3-4.7-25.3l-2-2.2,2.6-3.3a26.416,26.416,0,0,0,.2-32.3l-2.7-3.5,3-3.7c1.6-2.1,3.3-5,3.6-6.6.4-1.5.9-2.7,1.2-2.7a33.915,33.915,0,0,1,5.2,3.4c10.9,8,35,18.6,42.1,18.6,3.8,0,7.4-4.4,6.5-8s-2.2-4.5-10-7a116.139,116.139,0,0,1-69.6-60.4c-2.3-4.7-4.4-10.6-4.7-13.1-.8-7.7-7-10.8-11.7-6-2.5,2.4-2.5,2.7-2.5,19.5,0,18.7-.5,20.7-5.9,25.3-7,5.9-17.5,3.4-21.8-5.3-2.2-4.2-2.3-5.4-2.3-30.5,0-15,.5-27.6,1.1-29.8,1.2-4.5,6.3-10.5,10.4-12.3,2.3-1.1,9.7-1.3,33.5-1.1C287.9-223.5,289.7-223.4,294.2-221.3Zm-94.2,55a111.647,111.647,0,0,0,.7,12.2c.6,5.3.6,5.3-1.8,4.6-1.3-.3-3.9-2.2-5.6-4.1-2.8-2.8-3.3-4.1-3.3-8s.5-5.1,3.4-8C198.7-174.9,200-174.3,200-166.3ZM258.5-150c.3.5.1,1-.4,1a1.1,1.1,0,0,1-1.1-1c0-.6.2-1,.4-1C257.7-151,258.2-150.6,258.5-150Zm-47,16c1.1,1.7,8.3,5,13,5.9a29.6,29.6,0,0,0,19.8-3.9c4.4-2.7,5.6-3,13.3-3,12.8,0,17.4,3.5,17.4,13.1,0,3.3-.6,4.7-3.4,7.5l-3.4,3.4H232.8c-38.7,0-38.2.1-41.3-6-3-5.9-1-13.6,4.3-16.4C198.9-135.1,210.6-135.5,211.5-134Zm55.9,38.4A11.623,11.623,0,0,1,275-84.4c0,3.6-.6,5.1-3.4,8.2l-3.4,3.7H196.8l-3.4-3.7c-2.8-3.1-3.4-4.6-3.4-8.2a11.819,11.819,0,0,1,7.4-11.2C201.9-97.6,262.7-97.6,267.4-95.6ZM269-56.5c5.5,2.8,7.6,10.5,4.5,16.5-3.1,6.1-2.6,6-40.8,6-30.6,0-35.1-.2-37.3-1.6-7.2-4.8-7-16.8.4-20.8C199.9-58.7,264.7-58.7,269-56.5Z" fill="#e1ff04"/>
    <path id="Path_1299" data-name="Path 1299" d="M148.7-405.2c-1.5,1.6-1.7,4.6-1.7,20.5,0,24.5-1.8,22.7,21.9,22.7,16.5,0,18-.2,20.5-2.1l2.6-2v-18.3c0-14.8-.3-18.6-1.6-20.4-1.5-2.1-2-2.2-20.8-2.2C152.2-407,150.1-406.8,148.7-405.2ZM178-385v9H161v-18h17Z" fill="#e1ff04"/>
    <path id="Path_1300" data-name="Path 1300" d="M211.7-405.2c-1.5,1.6-1.7,4.5-1.7,20.4,0,24.4-1.6,22.8,22.6,22.8,24.1,0,22.4,1.8,22.4-22.9,0-16.9-.2-19-1.8-20.4-1.6-1.5-4.6-1.7-20.9-1.7C215.2-407,213.1-406.8,211.7-405.2ZM241-385v9H224v-18h17Z" fill="#e1ff04"/>
    <path id="Path_1301" data-name="Path 1301" d="M274.6-404.8c-1.3,1.8-1.6,5.6-1.6,20.4v18.3l2.6,2c2.5,1.9,4,2.1,20.5,2.1,23.7,0,21.9,1.9,21.9-22.8,0-17-.2-19.1-1.8-20.5-1.6-1.5-4.6-1.7-21-1.7C276.6-407,276.1-406.9,274.6-404.8ZM304-385v9H287v-18h17Z" fill="#e1ff04"/>
  </g>
</svg>
